<svg width="60" height="60" viewBox="0 0 60 60" fill="none" xmlns="http://www.w3.org/2000/svg">
<g id="Group 15">
<g id="&#240;&#159;&#166;&#134; icon &#34;plus&#34;">
<rect id="Rectangle 19" width="60" height="60" rx="30" fill="#7B7B7B"/>
<path id="Vector" d="M47.1429 25.7143H34.2857V12.8571C34.2857 11.2795 33.0063 10 31.4286 10H28.5714C26.9937 10 25.7143 11.2795 25.7143 12.8571V25.7143H12.8571C11.2795 25.7143 10 26.9937 10 28.5714V31.4286C10 33.0063 11.2795 34.2857 12.8571 34.2857H25.7143V47.1429C25.7143 48.7205 26.9937 50 28.5714 50H31.4286C33.0063 50 34.2857 48.7205 34.2857 47.1429V34.2857H47.1429C48.7205 34.2857 50 33.0063 50 31.4286V28.5714C50 26.9937 48.7205 25.7143 47.1429 25.7143Z" fill="#F1F1F1"/>
</g>
</g>
</svg>
