<svg width="63" height="50" viewBox="0 0 63 50" fill="none" xmlns="http://www.w3.org/2000/svg">
<path d="M31.17 27.6554L9.92659 48.8988C8.4583 50.3671 6.08404 50.3671 4.63137 48.8988L1.10122 45.3686C-0.367073 43.9003 -0.367073 41.5261 1.10122 40.0734L16.159 25.0156L1.10122 9.95782C-0.367073 8.48953 -0.367073 6.11528 1.10122 4.66261L4.61575 1.10122C6.08404 -0.367073 8.45829 -0.367073 9.91097 1.10122L31.1543 22.3446C32.6382 23.8129 32.6382 26.1871 31.17 27.6554ZM61.1606 22.3446L39.9172 1.10122C38.4489 -0.367073 36.0747 -0.367073 34.622 1.10122L31.0918 4.63136C29.6236 6.09966 29.6236 8.47391 31.0918 9.92659L46.1496 24.9844L31.0918 40.0422C29.6236 41.5105 29.6236 43.8847 31.0918 45.3374L34.622 48.8675C36.0903 50.3358 38.4645 50.3358 39.9172 48.8675L61.1606 27.6242C62.6289 26.1871 62.6289 23.8129 61.1606 22.3446Z" fill="white"/>
</svg>
