<svg width="36" height="30" viewBox="0 0 36 30" fill="none" xmlns="http://www.w3.org/2000/svg">
<path id="Vector" d="M17.5227 7.78279L6.00047 17.9524V28.9285C6.00047 29.2126 6.10582 29.4852 6.29335 29.6862C6.48087 29.8871 6.7352 30 7.0004 30L14.0036 29.9806C14.2679 29.9792 14.521 29.8656 14.7074 29.6648C14.8939 29.464 14.9985 29.1923 14.9985 28.909V22.4992C14.9985 22.215 15.1039 21.9424 15.2914 21.7415C15.4789 21.5405 15.7333 21.4276 15.9985 21.4276H19.9981C20.2633 21.4276 20.5177 21.5405 20.7052 21.7415C20.8927 21.9424 20.9981 22.215 20.9981 22.4992V28.9043C20.9977 29.0453 21.0232 29.185 21.0733 29.3154C21.1234 29.4458 21.1969 29.5643 21.2898 29.6642C21.3827 29.7641 21.4931 29.8433 21.6146 29.8974C21.7361 29.9514 21.8664 29.9792 21.998 29.9792L28.9987 30C29.2639 30 29.5182 29.8871 29.7058 29.6862C29.8933 29.4852 29.9986 29.2126 29.9986 28.9285V17.9451L18.4789 7.78279C18.3435 7.6658 18.1747 7.60201 18.0008 7.60201C17.8269 7.60201 17.6581 7.6658 17.5227 7.78279ZM35.7232 14.6949L30.4986 10.0799V0.803661C30.4986 0.590517 30.4196 0.386103 30.2789 0.235387C30.1383 0.0846713 29.9475 0 29.7486 0H26.2489C26.05 0 25.8593 0.0846713 25.7186 0.235387C25.578 0.386103 25.499 0.590517 25.499 0.803661V5.66648L19.9038 0.733341C19.3668 0.259836 18.6931 0.000946542 17.9977 0.000946542C17.3023 0.000946542 16.6285 0.259836 16.0916 0.733341L0.272166 14.6949C0.196226 14.7622 0.133398 14.8448 0.087272 14.9381C0.0411455 15.0314 0.0126245 15.1335 0.00333859 15.2387C-0.00594732 15.3438 0.00418384 15.4498 0.0331532 15.5507C0.0621226 15.6516 0.109362 15.7454 0.172173 15.8268L1.7658 17.9029C1.82844 17.9845 1.90549 18.0521 1.99253 18.1018C2.07958 18.1514 2.17491 18.1822 2.27307 18.1924C2.37123 18.2025 2.47029 18.1918 2.56459 18.1609C2.65888 18.1299 2.74656 18.0794 2.82259 18.0121L17.5227 5.03695C17.6581 4.91996 17.8269 4.85617 18.0008 4.85617C18.1747 4.85617 18.3435 4.91996 18.4789 5.03695L33.1796 18.0121C33.2555 18.0794 33.3431 18.13 33.4372 18.161C33.5314 18.1921 33.6304 18.2029 33.7284 18.193C33.8265 18.183 33.9218 18.1525 34.0089 18.103C34.0959 18.0536 34.173 17.9863 34.2358 17.9049L35.8294 15.8288C35.8922 15.747 35.9392 15.6527 35.9678 15.5513C35.9965 15.45 36.0061 15.3436 35.9963 15.2382C35.9864 15.1328 35.9572 15.0306 35.9103 14.9374C35.8634 14.8441 35.7999 14.7617 35.7232 14.6949Z" fill="black"/>
</svg>
