<svg width="25" height="29" viewBox="0 0 25 29" fill="none" xmlns="http://www.w3.org/2000/svg">
<g id="&#240;&#159;&#166;&#134; icon &#34;User&#34;">
<path id="Vector" d="M12.5 14.2857C16.4453 14.2857 19.6429 11.0882 19.6429 7.14286C19.6429 3.19755 16.4453 0 12.5 0C8.55469 0 5.35714 3.19755 5.35714 7.14286C5.35714 11.0882 8.55469 14.2857 12.5 14.2857ZM17.5 16.0714H16.5681C15.3292 16.6406 13.9509 16.9643 12.5 16.9643C11.0491 16.9643 9.67634 16.6406 8.43192 16.0714H7.5C3.35937 16.0714 0 19.4308 0 23.5714V25.8929C0 27.3717 1.19978 28.5714 2.67857 28.5714H22.3214C23.8002 28.5714 25 27.3717 25 25.8929V23.5714C25 19.4308 21.6406 16.0714 17.5 16.0714Z" fill="black"/>
</g>
</svg>
