<svg width="35" height="25" viewBox="0 0 35 25" fill="none" xmlns="http://www.w3.org/2000/svg">
<g id="&#240;&#159;&#166;&#134; icon &#34;Cloud&#34;">
<path id="Vector" d="M29.4 10.6422C29.6242 10.057 29.75 9.41719 29.75 8.75C29.75 5.85156 27.3984 3.5 24.5 3.5C23.4227 3.5 22.4164 3.82812 21.5852 4.38594C20.0703 1.76094 17.243 0 14 0C9.16562 0 5.25 3.91562 5.25 8.75C5.25 8.89766 5.25547 9.04531 5.26094 9.19297C2.19844 10.2703 0 13.1906 0 16.625C0 20.9727 3.52734 24.5 7.875 24.5H28C31.8664 24.5 35 21.3664 35 17.5C35 14.1148 32.5938 11.2875 29.4 10.6422Z" fill="black"/>
</g>
</svg>
